#!OML:ASF I:\Actors\actors\Patient Classification 1\Patient 1\Session 1\Subject1.ASF
:FULLY-SPECIFIED
:DEGREES
1030
root 0.574938 17.4784 9.9048 11.4138 -6.35731 -9.50245
lowerback -4.10412 1.78841 6.92026
upperback -7.83372 2.43332 1.7922
thorax -5.68679 0.874116 -2.00752
lowerneck -10.8641 -2.26679 -0.544238
upperneck 35.3012 -5.0584 4.7796
head 13.9824 -1.67535 1.26371
rclavicle 9.44227e-015 4.09496e-014
rhumerus -0.737805 35.8092 -77.5407
rradius 121.266
rwrist 17.4159
rhand 36.0207 -31.053
rfingers 7.12502
rthumb 59.0227 -45.8199
lclavicle 9.44227e-015 4.09496e-014
lhumerus -46.0102 -23.2468 103.862
lradius 126.023
lwrist 15.1412
lhand -19.0505 -7.27622
lfingers 7.12502
lthumb 7.25641 22.5794
rfemur -3.1525 24.8454 25.7608
rtibia 1.67953
rfoot -13.3854 -23.1204
rtoes -1.14277
lfemur 15.5434 -56.0232 -21.51
ltibia -4.52997
lfoot -60.9111 59.6636
ltoes 29.8077
1031
root 0.578246 17.478 9.90399 11.4783 -6.57829 -9.42594
lowerback -4.15648 1.82868 6.91214
upperback -7.8665 2.4817 1.75157
thorax -5.68664 0.896471 -2.04411
lowerneck -10.768 -2.21606 -0.455261
upperneck 35.1675 -5.00222 4.79827
head 13.8963 -1.6413 1.26288
rclavicle 1.73937e-014 -7.55382e-015
rhumerus -0.28438 36.4107 -77.447
rradius 121.056
rwrist 18.0014
rhand 34.1111 -30.6486
rfingers 7.12502
rthumb 57.3601 -46.9305
lclavicle 1.73937e-014 -7.55382e-015
lhumerus -46.0046 -23.2803 103.797
lradius 126.085
lwrist 15.1726
lhand -19.0191 -7.02056
lfingers 7.12502
lthumb 7.28675 22.834
rfemur -3.28258 24.7635 25.5741
rtibia 1.69715
rfoot -13.2982 -22.8684
rtoes -1.32016
lfemur 15.5879 -56.1086 -21.713
ltibia -4.48295
lfoot -61.5874 59.6274
ltoes 30.0848
1032
root 0.580649 17.4768 9.90333 11.5007 -6.7454 -9.4008
lowerback -4.15018 1.82907 6.91276
upperback -7.89433 2.48445 1.76684
thorax -5.7207 0.8964 -2.029
lowerneck -10.7006 -2.16286 -0.492059
upperneck 35.078 -4.94011 4.8903
head 13.8425 -1.61051 1.31499
rclavicle 2.00276e-014 3.33958e-014
rhumerus 0.193585 37.2796 -77.2974
rradius 120.93
rwrist 18.3612
rhand 32.0473 -30.369
rfingers 7.12502
rthumb 55.5375 -48.1116
lclavicle 2.00276e-014 3.33958e-014
lhumerus -46.0086 -23.2226 103.772
lradius 126.178
lwrist 15.1463
lhand -18.9002 -6.70221
lfingers 7.12502
lthumb 7.40145 23.1483
rfemur -3.31072 24.7647 25.4966
rtibia 1.66899
rfoot -13.2498 -22.6965
rtoes -1.22192
lfemur 15.6779 -56.1476 -21.8733
ltibia -4.45687
lfoot -62.0959 59.5808
ltoes 30.3673
1033
root 0.582577 17.4759 9.90192 11.5102 -6.8732 -9.43428
lowerback -4.13712 1.84805 6.98242
upperback -7.89919 2.5113 1.78211
thorax -5.73019 0.905706 -2.05207
lowerneck -10.7498 -2.16403 -0.606389
upperneck 35.0839 -4.96773 5.03767
head 13.8659 -1.6177 1.39008
rclavicle -1.36167e-014 -2.18663e-014
rhumerus 0.666964 38.1557 -77.116
rradius 120.785
rwrist 18.6966
rhand 29.8132 -29.8406
rfingers 7.12502
rthumb 53.5389 -48.9857
lclavicle -1.36167e-014 -2.18663e-014
lhumerus -45.9653 -23.2484 103.775
lradius 126.249
lwrist 15.1473
lhand -18.8326 -6.54236
lfingers 7.12502
lthumb 7.46673 23.3059
rfemur -3.32072 24.7551 25.5061
rtibia 1.64603
rfoot -13.2119 -22.5509
rtoes -1.19826
lfemur 15.6795 -56.0379 -21.863
ltibia -4.44256
lfoot -62.1681 59.5293
ltoes 30.4679
1034
root 0.583886 17.4751 9.89829 11.5315 -6.99265 -9.52664
lowerback -4.1469 1.88806 7.08965
upperback -7.87416 2.56335 1.82278
thorax -5.69248 0.928485 -2.06829
lowerneck -10.779 -2.18124 -0.702322
upperneck 35.0147 -5.00316 5.14528
head 13.8492 -1.63257 1.44369
rclavicle 2.38542e-015 -7.95139e-015
rhumerus 1.11416 39.0256 -76.8609
rradius 120.617
rwrist 19.1272
rhand 27.3719 -29.0093
rfingers 7.12502
rthumb 51.3294 -49.505
lclavicle 2.38542e-015 -7.95139e-015
lhumerus -45.8368 -23.345 103.821
lradius 126.283
lwrist 15.1822
lhand -18.9435 -6.77894
lfingers 7.12502
lthumb 7.35971 23.0731
rfemur -3.37176 24.7762 25.579
rtibia 1.66841
rfoot -13.184 -22.4402
rtoes -1.26892
lfemur 15.609 -55.8676 -21.6959
ltibia -4.45134
lfoot -62.0675 59.4759
ltoes 30.416
1035
root 0.584467 17.4748 9.89485 11.53 -7.11011 -9.59131
lowerback -4.13316 1.93165 7.13581
upperback -7.85112 2.62334 1.87383
thorax -5.67151 0.958526 -2.04069
lowerneck -10.7559 -2.21205 -0.719183
upperneck 34.9025 -5.04045 5.15524
head 13.7958 -1.65227 1.44339
rclavicle -1.23246e-014 1.35174e-014
rhumerus 1.40043 39.8653 -76.595
rradius 120.49
rwrist 19.6416
rhand 25.0503 -28.0673
rfingers 7.12502
rthumb 49.2074 -49.6965
lclavicle -1.23246e-014 1.35174e-014
lhumerus -45.7333 -23.4375 103.921
lradius 126.34
lwrist 15.1677
lhand -18.9494 -7.18292
lfingers 7.12502
lthumb 7.35403 22.6693
rfemur -3.39439 24.8041 25.6351
rtibia 1.69301
rfoot -13.1414 -22.348
rtoes -1.36333
lfemur 15.5891 -55.7185 -21.6057
ltibia -4.46498
lfoot -62.0134 59.469
ltoes 30.3397
1036
root 0.583787 17.4749 9.89333 11.5237 -7.21698 -9.56625
lowerback -4.12043 1.97478 7.09628
upperback -7.85298 2.6826 1.87959
thorax -5.6769 0.99026 -2.01329
lowerneck -10.7781 -2.27044 -0.696988
upperneck 34.8701 -5.11888 5.11724
head 13.7876 -1.68877 1.41167
rclavicle -1.21259e-014 -5.1684e-015
rhumerus 1.56159 40.5865 -76.364
rradius 120.452
rwrist 19.9874
rhand 23.2572 -27.2731
rfingers 7.12502
rthumb 47.5565 -49.6902
lclavicle -1.21259e-014 -5.1684e-015
lhumerus -45.7384 -23.5422 104.046
lradius 126.465
lwrist 15.1084
lhand -18.8231 -7.20826
lfingers 7.12502
lthumb 7.47589 22.6396
rfemur -3.40819 24.8303 25.592
rtibia 1.70732
rfoot -13.1214 -22.2816
rtoes -1.43018
lfemur 15.6316 -55.6813 -21.688
ltibia -4.46207
lfoot -62.1122 59.5036
ltoes 30.4254
1037
root 0.582384 17.4749 9.8917 11.5318 -7.27754 -9.53204
lowerback -4.13361 1.99739 7.05151
upperback -7.85541 2.7111 1.86343
thorax -5.66993 1.00666 -2.00496
lowerneck -10.8376 -2.31638 -0.694115
upperneck 34.864 -5.19996 5.14582
head 13.803 -1.71911 1.40978
rclavicle -5.96354e-015 -3.61788e-014
rhumerus 1.68755 41.1284 -76.1953
rradius 120.56
rwrist 19.7386
rhand 22.3672 -26.7838
rfingers 7.12502
rthumb 46.7336 -49.5665
lclavicle -5.96354e-015 -3.61788e-014
lhumerus -45.7235 -23.6541 104.145
lradius 126.594
lwrist 15.0928
lhand -18.746 -6.89845
lfingers 7.12502
lthumb 7.55035 22.9468
rfemur -3.44992 24.8312 25.5309
rtibia 1.72831
rfoot -13.137 -22.2261
rtoes -1.36908
lfemur 15.6343 -55.6868 -21.7343
ltibia -4.46168
lfoot -62.2911 59.4476
ltoes 30.6632
1038
root 0.581129 17.4746 9.88951 11.5314 -7.26442 -9.57012
lowerback -4.13208 1.99061 7.06707
upperback -7.85324 2.70231 1.87093
thorax -5.66919 1.00171 -2.00577
lowerneck -10.8652 -2.33623 -0.669562
upperneck 34.8424 -5.25683 5.2048
head 13.8039 -1.733 1.41998
rclavicle -1.19271e-015 3.18055e-015
rhumerus 1.70105 41.4315 -76.1376
rradius 120.76
rwrist 18.6742
rhand 22.7422 -26.3703
rfingers 7.12502
rthumb 47.0805 -49.001
lclavicle -1.19271e-015 3.18055e-015
lhumerus -45.6252 -23.741 104.196
lradius 126.672
lwrist 15.1424
lhand -18.7212 -6.71029
lfingers 7.12502
lthumb 7.57422 23.1341
rfemur -3.46818 24.8056 25.5736
rtibia 1.74596
rfoot -13.1204 -22.2312
rtoes -1.35247
lfemur 15.6009 -55.6514 -21.6401
ltibia -4.48526
lfoot -62.3799 59.3447
ltoes 30.7918
1039
root 0.580685 17.4748 9.88784 11.5216 -7.19616 -9.60241
lowerback -4.16582 1.96679 7.06965
upperback -7.83637 2.66707 1.88842
thorax -5.63559 0.986066 -1.98758
lowerneck -10.8473 -2.35326 -0.664139
upperneck 34.7813 -5.30265 5.2699
head 13.7771 -1.74545 1.43752
rclavicle 1.635e-014 4.37326e-015
rhumerus 1.60885 41.5163 -76.0851
rradius 121.074
rwrist 16.9024
rhand 24.5037 -26.1273
rfingers 7.12502
rthumb 48.7051 -48.0043
lclavicle 1.635e-014 4.37326e-015
lhumerus -45.5097 -23.8177 104.213
lradius 126.731
lwrist 15.1925
lhand -18.663 -6.78818
lfingers 7.12502
lthumb 7.63042 23.0542
rfemur -3.45873 24.7852 25.6201
rtibia 1.7428
rfoot -13.1238 -22.2758
rtoes -1.19944
lfemur 15.5352 -55.6107 -21.5214
ltibia -4.5019
lfoot -62.1457 59.3902
ltoes 30.6032
1040
root 0.580568 17.4751 9.88706 11.5022 -7.0962 -9.55052
lowerback -4.20394 1.94342 7.0042
upperback -7.82664 2.63146 1.87079
thorax -5.60724 0.972695 -1.96843
lowerneck -10.8697 -2.40228 -0.727546
upperneck 34.7615 -5.39273 5.3653
head 13.783 -1.78061 1.47306
rclavicle -7.05686e-015 2.06736e-014
rhumerus 1.39714 41.3883 -76.0071
rradius 121.5
rwrist 14.7752
rhand 27.4027 -26.1368
rfingers 7.12502
rthumb 51.3575 -46.6165
lclavicle -7.05686e-015 2.06736e-014
lhumerus -45.4547 -23.9281 104.229
lradius 126.824
lwrist 15.2034
lhand -18.4672 -6.83339
lfingers 7.12502
lthumb 7.81945 23.002
rfemur -3.4406 24.6842 25.5622
rtibia 1.71832
rfoot -13.1701 -22.2609
rtoes -1.07497
lfemur 15.4875 -55.6526 -21.5311
ltibia -4.48855
lfoot -61.9386 59.446
ltoes 30.3918
